<?xml version="1.0" encoding="UTF-8" standalone="no"?>
<!DOCTYPE svg PUBLIC "-//W3C//DTD SVG 20010904//EN"
              "http://www.w3.org/TR/2001/REC-SVG-20010904/DTD/svg10.dtd">

<svg xmlns="http://www.w3.org/2000/svg"
     width="22" height="22"
     viewBox="0 0 315 315">
  <path id="Selection"
        fill="#4B3E8D"
        d="M 151.00,0.42
           C 165.80,-1.38 195.72,4.21 210.00,9.31
             239.03,19.68 263.73,37.42 282.50,62.00
             295.30,78.76 306.56,102.28 310.88,123.00
             310.88,123.00 313.28,141.00 313.28,141.00
             313.28,141.00 314.98,160.00 314.98,160.00
             314.98,160.00 313.28,175.00 313.28,175.00
             313.28,175.00 310.88,192.00 310.88,192.00
             306.16,214.71 294.06,239.23 279.25,257.00
             268.40,270.01 256.43,281.15 242.00,290.09
             226.17,299.89 208.37,307.86 190.00,311.38
             190.00,311.38 175.00,313.28 175.00,313.28
             168.79,314.05 162.25,315.13 156.00,314.99
             156.00,314.99 129.00,311.92 129.00,311.92
             119.75,310.39 110.78,307.91 102.00,304.63
             98.84,303.46 92.79,301.19 90.65,298.73
             85.83,293.21 84.92,272.57 85.00,265.00
             85.44,227.69 114.98,202.48 147.00,189.14
             162.22,182.80 184.95,176.65 195.67,163.99
             206.46,151.25 207.97,127.19 194.83,115.48
             187.63,109.06 179.19,107.90 170.00,108.00
             150.31,108.23 129.45,123.16 123.46,142.00
             119.46,154.60 121.61,164.50 115.02,178.00
             102.52,203.58 72.64,215.70 47.00,223.28
             42.30,224.67 23.18,229.44 19.21,228.62
             15.24,227.79 11.65,216.68 10.34,213.00
             4.49,196.42 3.83,192.09 1.72,175.00
             1.72,175.00 0.00,159.00 0.00,159.00
             0.00,159.00 0.00,154.00 0.00,154.00
             0.00,154.00 1.72,139.00 1.72,139.00
             1.72,139.00 4.33,121.00 4.33,121.00
             15.07,75.33 46.76,36.09 89.00,15.78
             114.15,3.70 125.15,4.11 151.00,0.42 Z
           M 230.00,60.31
           C 223.16,61.60 217.25,64.19 213.11,70.09
             204.54,82.29 209.88,103.99 231.00,105.68
             256.98,107.75 265.41,72.33 241.00,62.12
             237.25,60.55 234.02,60.08 230.00,60.31 Z" />
</svg>
