<?xml version="1.0" encoding="UTF-8" standalone="no"?>
<!DOCTYPE svg PUBLIC "-//W3C//DTD SVG 20010904//EN"
              "http://www.w3.org/TR/2001/REC-SVG-20010904/DTD/svg10.dtd">

<svg xmlns="http://www.w3.org/2000/svg"
     width="246.561mm" height="121.693mm"
     viewBox="0 0 699 345">
  <path id="crop-logo"
        fill="#4B3E8D"
        d="M 12.00,68.00
           C 12.44,59.75 23.50,46.15 28.83,40.00
             37.34,30.18 48.47,20.58 60.00,14.41
             60.00,14.41 68.00,11.02 68.00,11.02
             71.55,9.31 72.92,8.10 77.00,6.75
             77.00,6.75 90.00,3.83 90.00,3.83
             95.86,2.46 101.98,0.10 108.00,0.00
             108.00,0.00 159.00,0.00 159.00,0.00
             167.13,0.06 166.98,1.27 167.00,9.00
             167.00,9.00 167.00,267.00 167.00,267.00
             167.00,267.00 167.00,326.00 167.00,326.00
             167.00,329.48 167.92,341.99 165.40,343.98
             163.81,345.23 159.99,345.00 158.00,345.00
             158.00,345.00 108.00,345.00 108.00,345.00
             108.00,345.00 79.01,339.70 79.01,339.70
             79.01,339.70 70.91,335.75 70.91,335.75
             57.60,330.06 53.47,327.58 42.00,318.67
             26.70,306.77 12.40,285.46 6.24,267.00
             4.15,260.72 2.97,254.46 1.76,248.00
             0.51,241.35 0.02,244.59 0.00,236.00
             0.00,236.00 0.00,156.00 0.00,156.00
             0.00,135.18 -2.33,104.92 4.31,85.72
             6.22,80.19 7.16,71.69 12.00,68.00 Z
           M 344.00,169.00
           C 344.00,169.00 216.00,169.00 216.00,169.00
             216.00,169.00 189.00,169.00 189.00,169.00
             186.59,169.00 180.40,169.40 178.60,167.98
             176.62,166.41 177.00,162.30 177.00,160.00
             177.00,160.00 177.00,37.00 177.00,37.00
             177.00,37.00 177.00,10.00 177.00,10.00
             177.01,7.46 176.68,3.52 178.60,1.60
             180.52,-0.32 184.46,0.01 187.00,0.00
             187.00,0.00 235.00,0.00 235.00,0.00
             239.20,0.01 242.40,-0.73 245.00,3.00
             252.47,1.24 269.10,6.94 276.00,10.52
             276.00,10.52 284.91,14.63 284.91,14.63
             293.99,19.69 305.43,27.87 312.49,35.43
             312.49,35.43 325.33,51.09 325.33,51.09
             327.80,54.62 327.69,56.39 331.00,60.00
             331.00,60.00 330.00,62.00 330.00,62.00
             334.20,64.70 334.64,68.59 336.23,73.00
             339.33,81.58 340.18,78.52 342.08,90.00
             345.48,110.52 344.00,146.80 344.00,169.00 Z
           M 414.00,16.00
           C 416.29,13.01 418.64,12.88 421.91,11.34
             430.49,7.30 428.36,6.91 439.00,4.80
             446.68,3.29 455.44,0.05 463.00,0.00
             463.00,0.00 494.00,0.00 494.00,0.00
             494.00,0.00 514.00,0.00 514.00,0.00
             515.95,0.04 518.63,-0.10 519.98,1.60
             521.23,3.19 521.00,7.01 521.00,9.00
             521.00,9.00 521.00,267.00 521.00,267.00
             521.00,267.00 521.00,336.00 521.00,336.00
             520.98,344.73 520.54,344.98 511.00,345.00
             511.00,345.00 464.00,345.00 464.00,345.00
             464.00,345.00 440.00,341.39 440.00,341.39
             430.13,339.52 432.74,339.04 425.00,335.75
             420.48,333.82 416.71,333.43 414.00,329.00
             406.14,328.07 399.11,320.66 393.08,315.86
             380.65,305.94 371.56,291.18 364.88,277.00
             363.18,273.38 361.46,270.95 360.22,267.00
             360.22,267.00 356.91,249.04 356.91,249.04
             355.70,242.16 354.02,246.28 354.00,235.00
             354.00,235.00 354.00,155.00 354.00,155.00
             354.00,155.00 354.00,110.00 354.00,110.00
             354.02,99.91 355.35,103.42 356.72,97.91
             356.72,97.91 360.46,78.00 360.46,78.00
             360.46,78.00 366.18,65.99 366.18,65.99
             372.97,49.81 383.63,37.90 396.83,26.65
             401.42,22.75 408.03,16.98 414.00,16.00 Z
           M 693.00,82.00
           C 695.62,84.25 695.53,86.71 696.08,90.00
             696.08,90.00 699.00,107.00 699.00,107.00
             699.00,107.00 699.00,160.00 699.00,160.00
             698.98,168.64 698.64,168.98 690.00,169.00
             690.00,169.00 613.00,169.00 613.00,169.00
             613.00,169.00 552.00,169.00 552.00,169.00
             548.42,169.00 535.03,169.93 533.02,167.40
             531.77,165.81 532.00,161.99 532.00,160.00
             532.00,160.00 532.00,37.00 532.00,37.00
             532.00,37.00 532.00,10.00 532.00,10.00
             532.01,7.46 531.68,3.52 533.60,1.60
             535.52,-0.32 539.46,0.01 542.00,0.00
             542.00,0.00 584.00,0.00 584.00,0.00
             588.89,0.00 595.96,-1.54 599.00,3.00
             606.39,0.99 623.33,6.84 630.28,10.44
             630.28,10.44 639.54,14.54 639.54,14.54
             655.76,23.21 671.57,38.61 681.46,54.00
             685.12,59.68 693.62,75.64 693.00,82.00 Z
           M 177.00,344.00
           C 177.00,344.00 177.00,218.00 177.00,218.00
             177.00,218.00 177.00,192.00 177.00,192.00
             177.00,192.00 178.02,181.60 178.02,181.60
             178.02,181.60 186.00,180.00 186.00,180.00
             186.00,180.00 344.00,180.00 344.00,180.00
             344.00,180.00 344.00,237.00 344.00,237.00
             343.99,244.04 342.53,256.37 340.31,262.99
             340.31,262.99 336.80,271.09 336.80,271.09
             336.80,271.09 334.10,279.00 334.10,279.00
             334.10,279.00 329.46,287.00 329.46,287.00
             318.62,305.68 303.31,321.64 283.96,331.73
             283.96,331.73 274.09,335.75 274.09,335.75
             274.09,335.75 265.99,339.70 265.99,339.70
             261.94,341.14 239.30,344.98 235.00,345.00
             235.00,345.00 211.00,345.00 211.00,345.00
             200.75,345.00 186.74,345.74 177.00,344.00 Z
           M 532.00,180.00
           C 532.00,180.00 699.00,180.00 699.00,180.00
             699.00,180.00 699.00,238.00 699.00,238.00
             699.00,238.00 696.00,256.00 696.00,256.00
             696.00,256.00 693.00,264.00 693.00,264.00
             693.07,269.03 690.74,273.51 688.62,278.00
             683.71,288.39 678.75,296.26 671.27,305.00
             658.55,319.86 645.78,328.61 628.00,336.14
             628.00,336.14 619.00,340.17 619.00,340.17
             619.00,340.17 602.00,343.24 602.00,343.24
             595.35,344.49 598.59,344.98 590.00,345.00
             590.00,345.00 566.00,345.00 566.00,345.00
             555.75,345.00 541.74,345.74 532.00,344.00
             532.00,344.00 532.00,180.00 532.00,180.00 Z" />
</svg>
