<?xml version="1.0" encoding="UTF-8" standalone="no"?>
<!DOCTYPE svg PUBLIC "-//W3C//DTD SVG 20010904//EN"
              "http://www.w3.org/TR/2001/REC-SVG-20010904/DTD/svg10.dtd">

<svg xmlns="http://www.w3.org/2000/svg"
     width="246.561mm" height="152.734mm"
     viewBox="0 0 699 433">
  <path id="Sélection #1"
        fill="#000" stroke="none"
        d="M 173.00,334.00
           C 167.03,335.70 158.38,335.00 152.00,335.00
             152.00,335.00 115.00,335.00 115.00,335.00
             102.03,334.84 85.46,329.98 74.00,324.00
             46.45,309.64 28.80,290.38 18.31,261.00
             14.74,251.01 12.02,240.67 12.00,230.00
             12.00,230.00 12.00,108.00 12.00,108.00
             12.04,98.65 14.96,86.80 18.12,78.00
             32.19,38.71 63.20,12.63 104.00,4.91
             111.69,3.45 109.14,3.01 118.00,3.00
             118.00,3.00 166.00,3.00 166.00,3.00
             173.49,3.14 172.99,5.26 173.00,12.00
             173.00,12.00 173.00,85.00 173.00,85.00
             173.00,85.00 173.00,181.00 173.00,181.00
             173.00,181.00 173.00,283.00 173.00,283.00
             173.00,283.00 173.00,317.00 173.00,317.00
             173.00,317.00 173.00,334.00 173.00,334.00 Z
           M 184.00,3.00
           C 184.00,3.00 238.00,3.00 238.00,3.00
             244.84,3.01 255.32,4.98 262.00,6.70
             278.52,10.95 299.87,23.06 311.82,35.17
             329.73,53.34 343.96,82.13 344.00,108.00
             344.00,108.00 344.00,165.00 344.00,165.00
             344.00,165.00 184.00,165.00 184.00,165.00
             184.00,165.00 184.00,3.00 184.00,3.00 Z
           M 516.00,335.00
           C 498.38,335.00 459.21,336.30 444.00,333.38
             423.74,329.49 404.16,318.58 389.04,304.71
             371.59,288.72 360.56,265.03 356.81,242.00
             355.69,235.17 355.01,237.52 355.00,229.00
             355.00,229.00 355.00,191.00 355.00,191.00
             355.00,191.00 355.00,110.00 355.00,110.00
             355.01,101.48 355.69,103.83 356.81,97.00
             360.62,73.62 369.99,54.48 386.17,37.01
             403.13,18.71 435.77,3.05 461.00,3.00
             461.00,3.00 482.00,3.00 482.00,3.00
             482.00,3.00 507.00,3.00 507.00,3.00
             508.99,3.00 512.81,2.77 514.40,4.02
             516.38,5.59 516.00,9.70 516.00,12.00
             516.00,12.00 516.00,335.00 516.00,335.00 Z
           M 687.00,165.00
           C 687.00,165.00 564.00,165.00 564.00,165.00
             564.00,165.00 539.00,165.00 539.00,165.00
             536.59,165.00 530.40,165.40 528.60,163.98
             526.62,162.41 527.00,158.30 527.00,156.00
             527.00,156.00 527.00,39.00 527.00,39.00
             527.00,39.00 527.00,12.00 527.00,12.00
             527.00,10.01 526.77,6.19 528.02,4.60
             529.59,2.62 533.70,3.00 536.00,3.00
             536.00,3.00 582.00,3.00 582.00,3.00
             586.60,3.01 600.39,5.45 605.00,6.69
             639.03,15.86 665.62,39.57 679.14,72.00
             684.27,84.30 686.98,94.58 687.00,108.00
             687.00,108.00 687.00,165.00 687.00,165.00 Z
           M 184.00,335.00
           C 184.00,335.00 184.00,213.00 184.00,213.00
             184.00,213.00 184.00,188.00 184.00,188.00
             184.00,185.59 183.60,179.40 185.02,177.60
             186.59,175.62 190.70,176.00 193.00,176.00
             193.00,176.00 309.00,176.00 309.00,176.00
             309.00,176.00 335.00,176.00 335.00,176.00
             336.99,176.00 340.81,175.77 342.40,177.02
             344.38,178.59 344.00,182.70 344.00,185.00
             344.00,185.00 344.00,231.00 344.00,231.00
             343.99,240.00 342.49,246.45 340.07,255.00
             329.81,291.38 300.52,321.09 264.00,331.08
             254.80,333.60 249.77,334.98 240.00,335.00
             240.00,335.00 184.00,335.00 184.00,335.00 Z
           M 527.00,335.00
           C 527.00,335.00 527.00,213.00 527.00,213.00
             527.00,213.00 527.00,188.00 527.00,188.00
             527.00,188.00 528.02,177.60 528.02,177.60
             528.02,177.60 536.00,176.00 536.00,176.00
             536.00,176.00 687.00,176.00 687.00,176.00
             687.00,176.00 687.00,231.00 687.00,231.00
             686.98,243.86 684.02,255.24 679.00,267.00
             665.55,298.47 640.18,322.00 607.00,331.08
             597.80,333.60 592.77,334.98 583.00,335.00
             583.00,335.00 527.00,335.00 527.00,335.00 Z
           M 105.00,390.00
           C 102.22,390.00 94.61,390.49 92.56,388.98
             90.86,387.73 90.02,384.01 89.00,382.00
             86.09,376.27 80.75,371.09 74.00,370.90
             66.50,370.71 60.86,376.62 57.91,383.00
             52.61,394.48 54.91,413.86 66.00,421.30
             67.52,422.32 69.22,423.05 71.00,423.47
             78.52,425.20 84.74,420.11 88.39,414.00
             92.13,407.74 89.73,404.26 97.02,404.17
             98.17,403.98 100.80,404.00 101.85,404.17
             107.84,406.09 101.82,415.22 99.61,418.00
             93.20,426.08 83.24,430.29 73.00,429.96
             64.58,429.69 55.09,426.14 49.30,419.91
             34.70,404.18 39.03,376.96 59.00,367.90
             64.30,365.50 69.25,364.88 75.00,365.01
             89.62,365.35 103.60,374.61 105.00,390.00 Z
           M 105.00,429.00
           C 102.70,422.92 105.22,417.05 106.85,411.00
             106.85,411.00 114.66,379.00 114.66,379.00
             115.86,373.50 116.23,365.61 123.02,365.06
             132.38,364.29 132.72,369.39 134.42,377.00
             134.42,377.00 142.12,411.00 142.12,411.00
             142.82,414.05 145.56,424.12 144.41,426.57
             142.86,429.89 134.89,429.54 132.51,427.40
             129.60,424.79 127.56,412.16 127.00,408.00
             127.00,408.00 113.00,408.00 113.00,408.00
             112.46,412.04 110.57,424.52 108.10,427.28
             107.03,428.48 106.32,428.47 105.00,429.00 Z
           M 153.92,387.00
           C 153.92,387.00 153.92,403.00 153.92,403.00
             153.92,403.00 153.92,423.96 153.92,423.96
             153.42,425.78 151.95,428.95 149.53,427.60
             147.72,426.59 148.01,422.78 148.00,421.00
             148.00,421.00 148.00,374.00 148.00,374.00
             148.00,372.01 147.77,368.19 149.02,366.60
             150.99,364.11 159.26,364.62 161.49,366.60
             163.34,368.23 165.41,374.48 166.31,377.00
             166.31,377.00 172.00,392.00 172.00,392.00
             172.70,388.07 178.50,369.79 180.70,367.31
             182.93,364.80 190.69,363.71 192.98,366.60
             194.23,368.19 194.00,372.01 194.00,374.00
             194.00,374.00 194.00,420.00 194.00,420.00
             194.00,421.94 194.25,425.72 193.01,427.33
             191.06,429.67 183.71,429.51 181.60,427.33
             179.96,425.77 180.04,423.14 180.00,421.00
             179.85,412.57 180.97,392.92 179.00,386.00
             178.17,391.40 173.70,404.47 171.65,410.00
             170.85,412.17 168.87,417.02 165.68,414.95
             164.08,413.91 162.53,408.89 161.81,407.00
             161.81,407.00 153.92,387.00 153.92,387.00 Z
           M 202.31,366.02
           C 208.80,363.56 213.87,364.23 214.00,372.00
             214.00,372.00 214.00,419.00 214.00,419.00
             213.99,421.54 214.32,425.48 212.40,427.40
             210.03,429.77 202.96,429.59 201.02,426.69
             199.88,424.98 200.01,422.00 200.00,420.00
             200.00,420.00 200.00,381.00 200.00,381.00
             200.00,376.09 198.77,369.82 202.31,366.02 Z
           M 255.00,423.00
           C 254.40,430.17 252.12,429.00 241.00,429.00
             236.73,429.00 223.38,430.23 221.02,426.69
             219.79,424.84 220.00,421.19 220.00,419.00
             220.00,419.00 220.00,374.00 220.00,374.00
             220.00,372.01 219.77,368.19 221.02,366.60
             223.13,363.94 231.13,364.54 232.98,367.31
             234.21,369.16 234.00,372.81 234.00,375.00
             234.00,375.00 234.00,423.00 234.00,423.00
             234.00,423.00 255.00,423.00 255.00,423.00 Z
           M 292.00,423.00
           C 291.85,424.77 291.96,426.74 290.40,427.98
             288.81,429.23 284.99,429.00 283.00,429.00
             283.00,429.00 265.00,429.00 265.00,429.00
             263.18,428.99 260.08,429.15 258.60,427.98
             256.62,426.41 257.00,422.30 257.00,420.00
             257.00,420.00 257.00,374.00 257.00,374.00
             257.00,372.01 256.77,368.19 258.02,366.60
             259.77,364.39 267.23,364.39 268.98,366.60
             270.23,368.19 270.00,372.01 270.00,374.00
             270.00,374.00 270.00,423.00 270.00,423.00
             270.00,423.00 292.00,423.00 292.00,423.00 Z
           M 294.00,366.00
           C 294.00,366.00 317.00,365.00 317.00,365.00
             318.86,365.01 328.43,365.16 325.83,369.44
             324.84,371.08 321.66,370.96 320.00,371.00
             320.00,371.00 307.00,371.00 307.00,371.00
             307.00,371.00 307.00,395.00 307.00,395.00
             307.00,395.00 324.00,395.00 324.00,395.00
             324.00,395.00 324.00,399.00 324.00,399.00
             324.00,399.00 307.00,399.00 307.00,399.00
             307.00,399.00 307.00,423.00 307.00,423.00
             307.00,423.00 319.00,423.00 319.00,423.00
             320.82,423.01 324.76,422.76 325.83,424.58
             328.29,428.77 319.95,428.99 318.00,429.00
             318.00,429.00 301.00,429.00 301.00,429.00
             299.38,428.97 296.94,429.04 295.60,427.98
             293.90,426.63 294.04,423.95 294.00,422.00
             294.00,422.00 294.00,366.00 294.00,366.00 Z
           M 427.00,406.00
           C 426.53,415.65 419.27,425.39 409.96,428.47
             405.22,430.04 399.93,430.05 395.00,430.00
             390.81,429.95 386.86,429.50 383.00,427.74
             369.15,421.43 365.84,411.11 366.00,397.00
             366.13,386.34 371.01,376.36 381.00,371.54
             384.12,370.03 386.70,369.69 389.91,368.83
             391.98,368.28 393.93,367.30 396.09,367.13
             399.30,366.89 401.99,368.07 405.00,368.93
             417.12,372.38 425.74,377.15 427.00,391.00
             424.48,391.00 418.50,391.41 416.56,389.98
             414.50,388.47 414.72,385.54 411.91,381.42
             406.88,374.07 402.37,372.49 394.00,371.00
             391.56,374.20 388.42,374.35 385.59,377.34
             379.05,384.23 377.45,392.78 378.09,402.00
             378.83,412.60 384.66,426.06 397.00,426.26
             400.70,426.32 404.00,425.15 406.83,422.76
             408.25,421.56 411.13,418.39 412.16,416.83
             414.19,413.77 415.20,409.56 416.00,406.00
             416.00,406.00 427.00,406.00 427.00,406.00 Z
           M 459.00,367.71
           C 465.16,366.39 464.60,367.36 470.09,368.83
             477.16,370.72 481.31,371.47 486.61,377.29
             497.51,389.24 496.96,411.54 484.82,422.49
             477.17,429.39 470.80,430.11 461.00,430.00
             456.99,429.95 451.66,429.39 448.00,427.73
             437.69,423.04 430.34,410.19 430.34,399.00
             430.34,393.48 433.09,385.63 435.99,381.00
             441.98,371.46 449.28,370.70 459.00,367.71 Z
           M 609.00,393.00
           C 607.29,381.87 619.26,371.96 629.00,369.50
             632.75,368.55 637.14,366.74 640.92,367.12
             643.33,367.36 644.83,368.24 647.09,368.91
             650.21,369.84 652.87,370.19 655.91,371.70
             663.09,375.28 668.77,383.18 670.00,391.00
             670.00,391.00 658.00,391.00 658.00,391.00
             657.12,385.70 653.95,379.88 649.90,376.27
             647.35,374.00 645.16,373.83 643.00,371.00
             639.44,371.49 638.16,371.33 634.72,372.80
             620.49,378.89 620.85,389.76 621.00,403.00
             621.06,408.17 621.68,412.59 624.63,417.00
             632.76,429.12 646.07,430.12 653.72,417.00
             657.33,410.81 656.80,411.42 659.00,405.00
             659.00,405.00 638.00,405.00 638.00,405.00
             638.00,405.00 638.00,401.00 638.00,401.00
             638.00,401.00 671.00,402.00 671.00,402.00
             670.41,405.21 669.75,410.17 668.43,413.00
             662.07,426.68 650.93,430.16 637.00,430.00
             625.54,429.86 615.84,424.61 610.84,414.00
             609.08,410.27 608.36,409.13 609.00,405.00
             606.03,402.33 606.03,395.67 609.00,393.00 Z
           M 499.00,369.00
           C 507.86,369.00 520.03,367.91 527.83,372.40
             531.89,374.74 537.71,380.79 539.70,385.00
             545.03,396.24 542.14,413.27 532.83,421.49
             523.76,429.50 518.29,429.08 507.00,429.00
             504.87,428.98 501.49,429.26 500.02,427.40
             498.77,425.81 499.00,421.99 499.00,420.00
             499.00,420.00 499.00,369.00 499.00,369.00 Z
           M 549.00,369.00
           C 549.00,369.00 561.00,369.00 561.00,369.00
             561.00,369.00 561.00,429.00 561.00,429.00
             561.00,429.00 549.00,429.00 549.00,429.00
             549.00,429.00 549.00,369.00 549.00,369.00 Z
           M 569.00,369.00
           C 569.00,369.00 581.00,369.00 581.00,369.00
             581.00,369.00 586.99,385.04 586.99,385.04
             586.99,385.04 590.60,396.00 590.60,396.00
             590.60,396.00 593.77,403.00 593.77,403.00
             593.77,403.00 598.00,416.00 598.00,416.00
             598.00,416.00 598.00,369.00 598.00,369.00
             598.00,369.00 602.00,369.00 602.00,369.00
             602.00,369.00 602.00,429.00 602.00,429.00
             602.00,429.00 590.00,429.00 590.00,429.00
             590.00,429.00 586.93,421.83 586.93,421.83
             586.93,421.83 583.63,412.00 583.63,412.00
             583.63,412.00 580.11,404.00 580.11,404.00
             580.11,404.00 573.00,386.00 573.00,386.00
             573.00,386.00 573.00,421.00 573.00,421.00
             572.97,425.46 573.55,427.41 569.00,429.00
             569.00,429.00 569.00,369.00 569.00,369.00 Z
           M 461.27,371.45
           C 457.53,372.73 453.03,374.40 450.21,377.21
             443.73,383.68 443.35,398.44 444.75,407.00
             446.69,418.83 453.30,429.26 467.00,425.95
             481.01,422.57 484.19,400.97 481.17,389.09
             480.46,386.32 479.69,385.37 478.48,382.91
             477.53,381.00 476.77,378.97 475.35,377.34
             472.44,373.98 465.68,370.98 461.27,371.45 Z
           M 512.00,426.00
           C 514.59,425.22 517.48,424.56 519.71,423.00
             528.94,416.54 531.09,402.34 529.41,392.00
             527.79,382.04 522.66,373.99 512.00,373.00
             512.00,373.00 512.00,426.00 512.00,426.00 Z
           M 121.00,380.00
           C 121.00,380.00 115.00,403.00 115.00,403.00
             115.00,403.00 126.00,403.00 126.00,403.00
             126.00,403.00 121.00,380.00 121.00,380.00 Z" />
</svg>
