<?xml version="1.0" encoding="UTF-8" standalone="no"?>
<!DOCTYPE svg PUBLIC "-//W3C//DTD SVG 20010904//EN"
              "http://www.w3.org/TR/2001/REC-SVG-20010904/DTD/svg10.dtd">

<svg xmlns="http://www.w3.org/2000/svg"
     width="2.21111in" height="1.97778in"
     viewBox="0 0 199 178">
  <path id="Selection"
        fill="white" stroke="none"
        d="M 12.00,40.00
           C 10.05,30.47 18.27,33.77 20.46,27.89
             21.12,26.10 20.39,24.18 21.21,22.00
             22.15,19.52 24.81,17.62 25.16,15.00
             25.21,12.52 20.83,6.94 25.16,4.03
             27.58,2.56 31.43,3.18 32.98,5.43
             34.82,8.11 32.79,11.43 35.45,13.57
             37.84,15.50 41.57,14.59 43.69,15.60
             46.19,16.78 45.78,19.10 48.31,20.86
             53.06,24.18 57.63,20.86 60.00,28.00
             66.38,28.72 66.53,30.22 72.00,32.54
             80.16,36.00 87.36,36.57 92.00,45.18
             81.75,47.88 77.64,40.84 73.74,45.18
             71.62,47.80 72.57,51.13 72.83,54.00
             72.83,54.00 73.91,69.00 73.91,69.00
             75.64,92.68 78.93,106.43 94.59,125.00
             98.42,129.54 104.29,135.72 109.00,139.24
             116.83,145.09 125.70,149.68 135.00,152.66
             137.69,153.52 143.31,155.30 146.00,154.79
             153.04,153.44 152.19,145.96 164.00,147.00
             164.00,147.00 159.00,157.00 159.00,157.00
             159.00,157.00 173.00,157.58 173.00,157.58
             173.00,157.58 179.00,156.63 179.00,156.63
             179.00,156.63 187.00,157.96 187.00,157.96
             189.95,158.13 197.01,157.41 195.16,162.79
             193.93,166.35 186.37,167.07 183.00,168.15
             176.17,170.33 178.36,168.77 173.00,169.22
             173.00,169.22 163.00,171.68 163.00,171.68
             157.31,172.70 145.71,173.99 140.00,174.00
             103.67,174.06 70.31,170.90 44.17,142.00
             35.96,132.92 28.24,120.95 22.75,110.00
             12.51,89.55 14.07,85.17 7.97,66.00
             4.63,55.48 -0.89,46.99 12.00,40.00 Z
           M 31.00,8.00
           C 29.16,5.35 29.16,5.58 26.00,6.00
             26.00,6.00 31.00,8.00 31.00,8.00 Z
           M 43.00,24.00
           C 43.00,24.00 37.00,23.00 37.00,23.00
             37.00,23.00 43.00,29.00 43.00,29.00
             43.00,29.00 43.00,24.00 43.00,24.00 Z
           M 51.00,29.00
           C 51.00,29.00 42.00,32.00 42.00,32.00
             42.00,32.00 48.00,37.00 48.00,37.00
             48.00,37.00 48.00,31.00 48.00,31.00
             48.00,31.00 51.00,29.00 51.00,29.00 Z
           M 41.00,34.00
           C 39.37,32.17 39.34,32.24 37.00,33.00
             37.00,33.00 41.00,34.00 41.00,34.00 Z
           M 75.00,36.00
           C 71.36,34.97 69.59,34.58 66.00,36.00
             66.00,36.00 68.00,37.00 68.00,37.00
             68.00,37.00 68.00,38.00 68.00,38.00
             68.00,38.00 65.00,41.00 65.00,41.00
             60.79,40.03 59.47,40.34 58.00,36.00
             58.00,36.00 44.00,40.00 44.00,40.00
             44.00,40.00 51.00,40.00 51.00,40.00
             51.00,40.00 51.00,42.00 51.00,42.00
             39.41,42.04 43.03,43.25 36.00,47.00
             39.07,50.82 43.37,48.40 48.00,47.73
             53.85,46.88 67.56,45.35 71.78,41.57
             73.78,39.78 74.17,38.41 75.00,36.00 Z
           M 42.00,40.00
           C 42.00,40.00 41.00,40.00 41.00,40.00
             41.00,40.00 42.00,41.00 42.00,41.00
             42.00,41.00 42.00,40.00 42.00,40.00 Z
           M 40.00,41.00
           C 40.00,41.00 25.00,44.00 25.00,44.00
             25.00,44.00 28.00,54.00 28.00,54.00
             28.00,54.00 35.00,51.00 35.00,51.00
             35.00,51.00 30.00,49.00 30.00,49.00
             30.00,49.00 31.00,44.00 31.00,44.00
             31.00,44.00 34.00,46.00 34.00,46.00
             34.00,46.00 40.00,41.00 40.00,41.00 Z
           M 87.00,41.00
           C 87.00,41.00 86.00,41.00 86.00,41.00
             86.00,41.00 87.00,42.00 87.00,42.00
             87.00,42.00 87.00,41.00 87.00,41.00 Z
           M 18.00,49.00
           C 16.37,47.17 16.34,47.24 14.00,48.00
             14.00,48.00 18.00,49.00 18.00,49.00 Z
           M 70.00,49.00
           C 70.00,49.00 57.00,50.00 57.00,50.00
             57.00,50.00 58.00,54.00 58.00,54.00
             43.78,51.50 47.92,58.67 35.00,59.00
             35.44,60.63 36.81,64.41 36.63,65.87
             36.29,68.60 30.37,71.34 28.00,73.00
             31.42,81.54 34.62,72.08 44.00,69.00
             44.00,69.00 42.00,62.00 42.00,62.00
             42.00,62.00 45.00,65.00 45.00,65.00
             45.00,65.00 47.00,65.00 47.00,65.00
             47.00,65.00 47.00,63.00 47.00,63.00
             47.00,63.00 50.00,64.00 50.00,64.00
             50.00,64.00 47.00,71.00 47.00,71.00
             47.00,71.00 50.00,72.00 50.00,72.00
             50.00,72.00 48.00,76.00 48.00,76.00
             48.00,76.00 43.00,75.00 43.00,75.00
             43.00,75.00 41.00,79.00 41.00,79.00
             41.00,79.00 45.00,78.00 45.00,78.00
             45.00,78.00 46.00,81.00 46.00,81.00
             46.00,81.00 37.00,81.00 37.00,81.00
             37.00,81.00 37.00,89.00 37.00,89.00
             37.00,89.00 33.00,87.00 33.00,87.00
             33.00,87.00 32.00,90.00 32.00,90.00
             32.00,90.00 38.00,90.00 38.00,90.00
             38.36,85.10 38.42,84.64 43.00,83.00
             43.00,83.00 43.00,86.00 43.00,86.00
             40.73,86.81 41.20,87.67 41.00,90.00
             45.77,86.35 46.01,85.44 48.00,80.00
             51.52,85.93 53.32,81.48 56.00,93.00
             56.00,93.00 50.00,92.00 50.00,92.00
             50.00,92.00 46.00,95.00 46.00,95.00
             49.63,100.70 49.36,104.76 56.00,107.00
             56.00,107.00 63.00,105.00 63.00,105.00
             65.64,110.75 68.77,111.69 65.00,116.00
             69.03,123.58 76.97,121.31 74.00,131.00
             81.39,134.18 92.07,138.99 95.00,147.00
             95.00,147.00 98.00,148.00 98.00,148.00
             98.00,148.00 96.00,150.00 96.00,150.00
             96.00,150.00 96.00,151.00 96.00,151.00
             96.00,151.00 105.00,158.00 105.00,158.00
             105.00,158.00 112.00,156.00 112.00,156.00
             124.25,153.13 133.43,164.99 142.00,160.00
             142.00,160.00 124.00,154.01 124.00,154.01
             124.00,154.01 115.58,148.55 115.58,148.55
             115.58,148.55 103.00,141.79 103.00,141.79
             103.00,141.79 92.00,129.00 92.00,129.00
             92.00,129.00 93.00,135.00 93.00,135.00
             89.77,131.38 88.05,130.02 88.00,125.00
             88.00,125.00 91.00,128.00 91.00,128.00
             91.00,128.00 84.00,117.00 84.00,117.00
             84.00,117.00 82.00,119.00 82.00,119.00
             82.00,119.00 81.00,115.00 81.00,115.00
             81.00,115.00 78.00,116.00 78.00,116.00
             78.00,116.00 76.00,112.00 76.00,112.00
             76.00,112.00 74.00,104.00 74.00,104.00
             74.00,104.00 77.00,104.00 77.00,104.00
             77.00,104.00 75.00,95.00 75.00,95.00
             75.00,95.00 72.00,96.00 72.00,96.00
             72.00,96.00 71.00,92.00 71.00,92.00
             71.00,92.00 73.00,94.00 73.00,94.00
             73.00,94.00 74.00,94.00 74.00,94.00
             74.00,94.00 72.00,88.00 72.00,88.00
             72.00,88.00 70.00,91.00 70.00,91.00
             70.00,91.00 68.00,79.00 68.00,79.00
             68.00,79.00 72.00,80.00 72.00,80.00
             72.00,80.00 70.89,73.83 70.89,73.83
             70.89,73.83 70.00,63.00 70.00,63.00
             61.60,65.26 64.42,57.76 68.00,54.00
             68.00,54.00 69.00,57.00 69.00,57.00
             69.00,57.00 70.00,49.00 70.00,49.00 Z
           M 11.00,49.00
           C 8.32,51.81 7.95,52.59 10.00,56.00
             10.00,56.00 11.00,49.00 11.00,49.00 Z
           M 25.00,52.00
           C 20.54,50.39 19.69,49.44 15.00,51.00
             16.87,54.51 17.26,54.68 21.00,56.00
             21.00,56.00 25.00,52.00 25.00,52.00 Z
           M 33.00,62.00
           C 33.00,62.00 32.00,62.00 32.00,62.00
             32.00,62.00 33.00,63.00 33.00,63.00
             33.00,63.00 33.00,62.00 33.00,62.00 Z
           M 30.00,63.00
           C 30.00,63.00 29.00,63.00 29.00,63.00
             29.00,63.00 30.00,64.00 30.00,64.00
             30.00,64.00 30.00,63.00 30.00,63.00 Z
           M 23.00,64.00
           C 23.00,64.00 22.00,64.00 22.00,64.00
             22.00,64.00 23.00,65.00 23.00,65.00
             23.00,65.00 23.00,64.00 23.00,64.00 Z
           M 48.00,65.00
           C 48.00,65.00 47.00,65.00 47.00,65.00
             47.00,65.00 48.00,66.00 48.00,66.00
             48.00,66.00 48.00,65.00 48.00,65.00 Z
           M 62.00,67.00
           C 64.83,69.16 65.63,71.50 65.00,75.00
             65.00,75.00 62.00,67.00 62.00,67.00 Z
           M 46.00,69.00
           C 46.00,69.00 45.00,69.00 45.00,69.00
             45.00,69.00 46.00,70.00 46.00,70.00
             46.00,70.00 46.00,69.00 46.00,69.00 Z
           M 45.00,71.00
           C 45.00,71.00 44.00,71.00 44.00,71.00
             44.00,71.00 45.00,72.00 45.00,72.00
             45.00,72.00 45.00,71.00 45.00,71.00 Z
           M 40.00,72.00
           C 40.00,72.00 39.00,72.00 39.00,72.00
             39.00,72.00 40.00,73.00 40.00,73.00
             40.00,73.00 40.00,72.00 40.00,72.00 Z
           M 47.00,72.00
           C 47.00,72.00 46.00,72.00 46.00,72.00
             46.00,72.00 47.00,73.00 47.00,73.00
             47.00,73.00 47.00,72.00 47.00,72.00 Z
           M 36.00,75.00
           C 36.00,75.00 35.00,75.00 35.00,75.00
             35.00,75.00 36.00,76.00 36.00,76.00
             36.00,76.00 36.00,75.00 36.00,75.00 Z
           M 33.00,80.00
           C 33.00,80.00 31.00,80.00 31.00,80.00
             31.00,80.00 29.00,84.00 29.00,84.00
             29.00,84.00 33.00,86.00 33.00,86.00
             33.00,86.00 34.00,81.00 34.00,81.00
             34.00,81.00 33.00,80.00 33.00,80.00 Z
           M 62.00,79.00
           C 66.85,83.12 66.81,85.95 66.00,92.00
             60.42,88.84 60.39,84.69 62.00,79.00 Z
           M 20.00,85.00
           C 20.00,85.00 19.00,85.00 19.00,85.00
             19.00,85.00 20.00,86.00 20.00,86.00
             20.00,86.00 20.00,85.00 20.00,85.00 Z
           M 48.00,88.00
           C 48.00,88.00 47.00,88.00 47.00,88.00
             47.00,88.00 48.00,89.00 48.00,89.00
             48.00,89.00 48.00,88.00 48.00,88.00 Z
           M 49.00,89.00
           C 49.00,89.00 48.00,89.00 48.00,89.00
             48.00,89.00 49.00,90.00 49.00,90.00
             49.00,90.00 49.00,89.00 49.00,89.00 Z
           M 50.00,91.00
           C 50.00,91.00 49.00,91.00 49.00,91.00
             49.00,91.00 50.00,92.00 50.00,92.00
             50.00,92.00 50.00,91.00 50.00,91.00 Z
           M 37.00,93.00
           C 37.00,93.00 36.00,93.00 36.00,93.00
             36.00,93.00 37.00,94.00 37.00,94.00
             37.00,94.00 37.00,93.00 37.00,93.00 Z
           M 38.00,94.00
           C 38.00,94.00 37.00,98.00 37.00,98.00
             37.00,98.00 41.00,96.00 41.00,96.00
             41.00,96.00 38.00,94.00 38.00,94.00 Z
           M 23.00,96.00
           C 23.00,96.00 22.00,96.00 22.00,96.00
             22.00,96.00 23.00,97.00 23.00,97.00
             23.00,97.00 23.00,96.00 23.00,96.00 Z
           M 38.00,100.00
           C 38.44,105.26 46.56,107.73 51.00,109.00
             51.00,109.00 47.00,101.00 47.00,101.00
             47.00,101.00 38.00,100.00 38.00,100.00 Z
           M 24.00,103.00
           C 24.00,103.00 23.00,103.00 23.00,103.00
             23.00,103.00 24.00,104.00 24.00,104.00
             24.00,104.00 24.00,103.00 24.00,103.00 Z
           M 25.00,105.00
           C 25.00,105.00 24.00,105.00 24.00,105.00
             24.00,105.00 25.00,106.00 25.00,106.00
             25.00,106.00 25.00,105.00 25.00,105.00 Z
           M 51.00,113.00
           C 51.00,113.00 50.00,113.00 50.00,113.00
             50.00,113.00 51.00,115.00 51.00,115.00
             51.00,115.00 48.00,114.00 48.00,114.00
             49.18,121.06 51.90,123.63 58.00,127.00
             58.00,127.00 59.00,126.00 59.00,126.00
             59.00,126.00 53.00,120.00 53.00,120.00
             53.00,120.00 53.00,115.00 53.00,115.00
             53.00,115.00 56.00,114.00 56.00,114.00
             56.00,114.00 51.00,113.00 51.00,113.00 Z
           M 30.00,114.00
           C 30.00,114.00 29.00,114.00 29.00,114.00
             29.00,114.00 30.00,115.00 30.00,115.00
             30.00,115.00 30.00,114.00 30.00,114.00 Z
           M 31.00,115.00
           C 31.00,115.00 30.00,115.00 30.00,115.00
             30.00,115.00 31.00,116.00 31.00,116.00
             31.00,116.00 31.00,115.00 31.00,115.00 Z
           M 32.00,117.00
           C 32.00,117.00 31.00,117.00 31.00,117.00
             31.00,117.00 32.00,118.00 32.00,118.00
             32.00,118.00 32.00,117.00 32.00,117.00 Z
           M 33.00,118.00
           C 33.00,118.00 32.00,118.00 32.00,118.00
             32.00,118.00 33.00,119.00 33.00,119.00
             33.00,119.00 33.00,118.00 33.00,118.00 Z
           M 35.00,121.00
           C 35.00,121.00 34.00,121.00 34.00,121.00
             34.00,121.00 35.00,122.00 35.00,122.00
             35.00,122.00 35.00,121.00 35.00,121.00 Z
           M 83.00,120.00
           C 83.00,120.00 86.00,124.00 86.00,124.00
             86.00,124.00 83.00,120.00 83.00,120.00 Z
           M 36.00,122.00
           C 36.00,122.00 35.00,122.00 35.00,122.00
             35.00,122.00 36.00,123.00 36.00,123.00
             36.00,123.00 36.00,122.00 36.00,122.00 Z
           M 66.00,126.00
           C 66.00,126.00 65.00,126.00 65.00,126.00
             65.00,126.00 66.00,127.00 66.00,127.00
             66.00,127.00 66.00,126.00 66.00,126.00 Z
           M 68.00,127.00
           C 68.00,127.00 67.00,127.00 67.00,127.00
             67.00,127.00 68.00,128.00 68.00,128.00
             68.00,128.00 68.00,127.00 68.00,127.00 Z
           M 92.00,128.00
           C 92.00,128.00 91.00,128.00 91.00,128.00
             91.00,128.00 92.00,129.00 92.00,129.00
             92.00,129.00 92.00,128.00 92.00,128.00 Z
           M 40.00,129.00
           C 40.00,129.00 39.00,129.00 39.00,129.00
             39.00,129.00 40.00,130.00 40.00,130.00
             40.00,130.00 40.00,129.00 40.00,129.00 Z
           M 43.00,133.00
           C 43.06,137.73 48.06,141.14 52.00,143.00
             52.00,143.00 43.00,133.00 43.00,133.00 Z
           M 66.00,136.00
           C 66.00,136.00 55.00,133.00 55.00,133.00
             58.32,136.49 61.34,137.79 66.00,136.00 Z
           M 76.00,134.00
           C 76.00,134.00 75.00,134.00 75.00,134.00
             75.00,134.00 76.00,135.00 76.00,135.00
             76.00,135.00 76.00,134.00 76.00,134.00 Z
           M 71.00,135.00
           C 71.00,135.00 70.00,135.00 70.00,135.00
             70.00,135.00 71.00,136.00 71.00,136.00
             71.00,136.00 71.00,135.00 71.00,135.00 Z
           M 53.00,143.00
           C 53.00,143.00 52.00,143.00 52.00,143.00
             52.00,143.00 53.00,144.00 53.00,144.00
             53.00,144.00 53.00,143.00 53.00,143.00 Z
           M 54.00,144.00
           C 54.06,148.06 57.60,148.99 61.00,150.00
             61.00,150.00 54.00,144.00 54.00,144.00 Z
           M 120.00,158.00
           C 120.00,158.00 116.00,160.00 116.00,160.00
             116.00,160.00 119.00,162.00 119.00,162.00
             119.00,162.00 120.00,158.00 120.00,158.00 Z
           M 124.00,160.00
           C 124.00,160.00 123.00,160.00 123.00,160.00
             123.00,160.00 124.00,161.00 124.00,161.00
             124.00,161.00 124.00,160.00 124.00,160.00 Z
           M 160.00,160.00
           C 160.00,160.00 149.00,161.00 149.00,161.00
             149.00,161.00 160.00,160.00 160.00,160.00 Z
           M 116.00,161.00
           C 116.00,161.00 115.00,161.00 115.00,161.00
             115.00,161.00 116.00,162.00 116.00,162.00
             116.00,162.00 116.00,161.00 116.00,161.00 Z
           M 123.00,161.00
           C 123.00,161.00 122.00,161.00 122.00,161.00
             122.00,161.00 123.00,162.00 123.00,162.00
             123.00,162.00 123.00,161.00 123.00,161.00 Z
           M 83.00,162.00
           C 83.00,165.84 90.06,166.80 93.00,166.00
             93.00,166.00 83.00,162.00 83.00,162.00 Z
           M 103.00,166.00
           C 103.00,166.00 102.00,166.00 102.00,166.00
             102.00,166.00 103.00,167.00 103.00,167.00
             103.00,167.00 103.00,166.00 103.00,166.00 Z
           M 99.00,168.00
           C 99.00,168.00 98.00,168.00 98.00,168.00
             98.00,168.00 99.00,169.00 99.00,169.00
             99.00,169.00 99.00,168.00 99.00,168.00 Z
           M 106.00,169.00
           C 106.00,169.00 105.00,169.00 105.00,169.00
             105.00,169.00 106.00,170.00 106.00,170.00
             106.00,170.00 106.00,169.00 106.00,169.00 Z
           M 135.00,171.00
           C 135.00,171.00 112.00,171.00 112.00,171.00
             118.70,171.02 129.18,173.31 135.00,171.00 Z" />
</svg>
