<svg xmlns="http://www.w3.org/2000/svg" width="212.267" height="189.867" viewBox="0 0 199 178"><path fill="#fff" d="M12 40c-1.95-9.53 6.27-6.23 8.46-12.11.66-1.79-.07-3.71.75-5.89.94-2.48 3.6-4.38 3.95-7 .05-2.48-4.33-8.06 0-10.97 2.42-1.47 6.27-.85 7.82 1.4 1.84 2.68-.19 6 2.47 8.14 2.39 1.93 6.12 1.02 8.24 2.03 2.5 1.18 2.09 3.5 4.62 5.26 4.75 3.32 9.32 0 11.69 7.14 6.38.72 6.53 2.22 12 4.54 8.16 3.46 15.36 4.03 20 12.64-10.25 2.7-14.36-4.34-18.26 0-2.12 2.62-1.17 5.95-.91 8.82l1.08 15c1.73 23.68 5.02 37.43 20.68 56 3.83 4.54 9.7 10.72 14.41 14.24 7.83 5.85 16.7 10.44 26 13.42 2.69.86 8.31 2.64 11 2.13 7.04-1.35 6.19-8.83 18-7.79l-5 10 14 .58 6-.95 8 1.33c2.95.17 10.01-.55 8.16 4.83-1.23 3.56-8.79 4.28-12.16 5.36-6.83 2.18-4.64.62-10 1.07l-10 2.46c-5.69 1.02-17.29 2.31-23 2.32-36.33.06-69.69-3.1-95.83-32-8.21-9.08-15.93-21.05-21.42-32-10.24-20.45-8.68-24.83-14.78-44C4.63 55.48-.89 46.99 12 40ZM31 8c-1.84-2.65-1.84-2.42-5-2l5 2Zm12 16-6-1 6 6v-5Zm8 5-9 3 6 5v-6l3-2Zm-10 5c-1.63-1.83-1.66-1.76-4-1l4 1Zm34 2c-3.64-1.03-5.41-1.42-9 0l2 1v1l-3 3c-4.21-.97-5.53-.66-7-5l-14 4h7v2c-11.59.04-7.97 1.25-15 5 3.07 3.82 7.37 1.4 12 .73 5.85-.85 19.56-2.38 23.78-6.16 2-1.79 2.39-3.16 3.22-5.57Zm-33 4h-1l1 1v-1Zm-2 1-15 3 3 10 7-3-5-2 1-5 3 2 6-5Zm47 0h-1l1 1v-1Zm-69 8c-1.63-1.83-1.66-1.76-4-1l4 1Zm52 0-13 1 1 4c-14.22-2.5-10.08 4.67-23 5 .44 1.63 1.81 5.41 1.63 6.87-.34 2.73-6.26 5.47-8.63 7.13 3.42 8.54 6.62-.92 16-4l-2-7 3 3h2v-2l3 1-3 7 3 1-2 4-5-1-2 4 4-1 1 3h-9v8l-4-2-1 3h6c.36-4.9.42-5.36 5-7v3c-2.27.81-1.8 1.67-2 4 4.77-3.65 5.01-4.56 7-10 3.52 5.93 5.32 1.48 8 13l-6-1-4 3c3.63 5.7 3.36 9.76 10 12l7-2c2.64 5.75 5.77 6.69 2 11 4.03 7.58 11.97 5.31 9 15 7.39 3.18 18.07 7.99 21 16l3 1-2 2v1l9 7 7-2c12.25-2.87 21.43 8.99 30 4l-18-5.99-8.42-5.46-12.58-6.76L92 129l1 6c-3.23-3.62-4.95-4.98-5-10l3 3-7-11-2 2-1-4-3 1-2-4-2-8h3l-2-9-3 1-1-4 2 2h1l-2-6-2 3-2-12 4 1-1.11-6.17L70 63c-8.4 2.26-5.58-5.24-2-9l1 3 1-8Zm-59 0c-2.68 2.81-3.05 3.59-1 7l1-7Zm14 3c-4.46-1.61-5.31-2.56-10-1 1.87 3.51 2.26 3.68 6 5l4-4Zm8 10h-1l1 1v-1Zm-3 1h-1l1 1v-1Zm-7 1h-1l1 1v-1Zm25 1h-1l1 1v-1Zm14 2c2.83 2.16 3.63 4.5 3 8l-3-8Zm-16 2h-1l1 1v-1Zm-1 2h-1l1 1v-1Zm-5 1h-1l1 1v-1Zm7 0h-1l1 1v-1Zm-11 3h-1l1 1v-1Zm-3 5h-2l-2 4 4 2 1-5-1-1Zm29-1c4.85 4.12 4.81 6.95 4 13-5.58-3.16-5.61-7.31-4-13Zm-42 6h-1l1 1v-1Zm28 3h-1l1 1v-1Zm1 1h-1l1 1v-1Zm1 2h-1l1 1v-1Zm-13 2h-1l1 1v-1Zm1 1-1 4 4-2-3-2Zm-15 2h-1l1 1v-1Zm15 4c.44 5.26 8.56 7.73 13 9l-4-8-9-1Zm-14 3h-1l1 1v-1Zm1 2h-1l1 1v-1Zm26 8h-1l1 2-3-1c1.18 7.06 3.9 9.63 10 13l1-1-6-6v-5l3-1-5-1Zm-21 1h-1l1 1v-1Zm1 1h-1l1 1v-1Zm1 2h-1l1 1v-1Zm1 1h-1l1 1v-1Zm2 3h-1l1 1v-1Zm48-1 3 4-3-4Zm-47 2h-1l1 1v-1Zm30 4h-1l1 1v-1Zm2 1h-1l1 1v-1Zm24 1h-1l1 1v-1Zm-52 1h-1l1 1v-1Zm3 4c.06 4.73 5.06 8.14 9 10l-9-10Zm23 3-11-3c3.32 3.49 6.34 4.79 11 3Zm10-2h-1l1 1v-1Zm-5 1h-1l1 1v-1Zm-18 8h-1l1 1v-1Zm1 1c.06 4.06 3.6 4.99 7 6l-7-6Zm66 14-4 2 3 2 1-4Zm4 2h-1l1 1v-1Zm36 0-11 1 11-1Zm-44 1h-1l1 1v-1Zm7 0h-1l1 1v-1Zm-40 1c0 3.84 7.06 4.8 10 4l-10-4Zm20 4h-1l1 1v-1Zm-4 2h-1l1 1v-1Zm7 1h-1l1 1v-1Zm29 2h-23c6.7.02 17.18 2.31 23 0Z"/></svg>