<svg xmlns="http://www.w3.org/2000/svg" width="40mm" height="40mm" viewBox="0 0 540 557"><path fill="#fff" d="M222 343c-6.25-1.14-11.99-1.98-18-4.23-2.41-.9-5.79-3.09-8.28-1.85-1.98.98-12.96 13.56-15.14 16.08l-18.45 21c-4.3 5.01-8.31 10.39-13.13 14.91-11.7 10.97-25.81 15.22-41 9-13.86-5.68-24.44-19.49-32-31.91-15.16-24.91-27.31-58.97-35.72-87l-11.65-43-7.23-32c-4.99-24.89-8.52-43.35-8.4-69l.91-11C16.4 89.93 27.42 57.6 57 37.67c7.74-5.21 16.06-9.23 25-11.95 21.84-6.65 35.68-5.98 58-5.72 11.83.14 38.27 5.16 50 8.42 4.27 1.19 22.11 7.06 25 6.76l21-9.49c14.05-5.11 32.07-7.86 47-7.69l25 2.42c3.5.55 10.98 2.19 14 1.95L344 17l25-3.96h9l8-1c6.5-.28 8.29.48 14 1h9c30.55 3.05 60.64 14.67 84 34.69 20.03 17.16 30.68 32.33 31 59.27.48 41.2-10.94 81.51-24.69 120-8.94 25.01-21.23 50.83-34.17 74L448 330c6.07.86 7.44 1.92 14 2 15.18.17 20.26-.79 35-3.25 8.39-1.4 18.76-3.96 25.78 2.64 1.96 1.85 2.95 4.01 3.52 6.61 2.67 12.2-10.71 22.68-19.3 28.85-16.62 11.92-40.56 18.91-61 19.15-9.01.1-18.3.66-27-2l-4.16 33-7.25 53c-2.53 15.71-5.63 31.92-15.35 45-10.6 14.25-26.44 21.66-43.24 25.87-29.43 7.39-59.44 4.53-75.69-24.87-10.28-18.62-10.99-31.44-12.4-52l-.91-11-1-21v-39c-23.32 15.53-48.03 19.32-75 11.28-11.86-3.53-27.79-12.18-21.85-27.28 3.7-9.44 16.95-12.64 25.85-14.87 16.79-4.22 22.68-4.17 34-19.13Zm221-43 9.69-18 12-25c12.59-27.42 22.87-55.73 30.18-85 3.51-14.03 8.11-35.76 8.13-50v-16c-.01-7.03-.83-14.59-3.91-21-2.66-5.53-8.73-11.68-13.09-16-13.31-13.17-26.63-21.04-44-27.58-11.77-4.42-32.44-8.4-45-8.42h-17l-23 2c2.78 4.64 10.31 7.5 15 10.42 8.64 5.39 16.46 11.93 24 18.75 16.6 15.02 35.56 42.12 44.42 62.83 3.36 7.86 7.14 16.43 8.1 25l-.52 15-4.17 37c-.4 4.11-.97 5.43-.79 10l3.96 40c.11 9.67.59 19.44-1.08 29-.84 4.74-4.08 12.73-2.92 17Zm-18-158c-18.63-43.94-50.29-81.11-97-95.97-20.27-6.45-34.06-7.27-55-7.03-21.88.26-45.68 10.38-60.91 26.04-9.22 9.48-16.89 22.88-22.23 34.96-6.88 15.57-12.48 40-13.86 57l19-7.48c12.11-4.08 18.41-4.66 31-4.52 25.17.3 37.8 19.34 41.75 42 6.14 35.24 8.62 62.75-4.95 97-4.53 11.43-13.99 30.31-15.8 42 20.57.96 32.91 17.22 33 37l-1 20v33l1 15v14l.91 10c.82 11.99.78 24.25 3.76 36 5.24 20.68 18.74 33.24 40.33 33 17.01-.2 41.02-7.77 51.21-22 7.96-11.12 10.14-27.68 12.06-41l9.57-75 2.2-20v-10c1.49-13.62 8.46-23.41 20.96-29-3.09-6.66-11.85-15.34-17.14-27l-13-25-10.61-20-7.24-16c-10.95-26.34-24.07-66.14 3.99-86.84 4.26-3.14 7.99-4.99 13-6.64 7.15-2.36 15.49-3.51 23-3.52h12ZM197 52c-23.06-8.63-53.45-12.28-78-12-8.85.11-22.53 2.63-31 5.34-7.46 2.4-13.51 5.26-20 9.69C29.77 81.11 29.99 140.25 37.8 181l5.2 26 7.63 33 11.7 41c8.61 25.9 18.91 56.22 34.03 79 5.65 8.52 15.19 20.86 26.64 19.89 9.16-.77 15.33-9.4 20.75-15.89L179 325l-13.56-18c-8.3-13.02-12.17-27.69-13.26-43l2.72-26v-11l1.1-20-1.16-14v-26c.2-22.94 7.92-56.14 17.47-77 4.38-9.58 9.51-18.62 15.93-27L197 52Zm231 111-15-.91c-8.54.49-20.42 1.86-26.66 8.24-7.8 7.96-5.63 24.72-3.54 34.67 4.09 19.41 15.45 41.57 24.89 59L423 292c9.01-27.73.04-48.96 0-76v-9l5-44Zm-212 2.29c-11.1 1.84-19.85 4.61-30 9.49-3.03 1.46-9.06 4.4-10.14 7.54-1.37 2.48.13 12.87 0 16.68v24c.1 23.04-7.5 41.14 1.74 64 2.62 6.47 5.73 11.83 10.49 17 3.7 4.02 7.31 7.34 11.91 10.3 5.11 3.29 13.92 6.98 20 7.52 7.68.69 7.58-3.9 9.69-9.82l10.73-27c13.5-31.13 13.91-51.87 9-85-2.19-14.74-3.24-32.02-21.42-34.71-3.58-.52-8.39-.34-12 0Zm187 1.02c1.87-.09 3.08-.29 5 0 7.58.56 11.75 5.99 6.43 12.51-3.23 3.96-9.32 6.54-14.43 5.98-7.56-.84-13.53-8.29-9.4-13.41 2.55-3.16 8.59-4.24 12.4-5.08Zm-181 5.14c5.02-.43 12.96.5 16.85 3.97 6.99 6.22-1.25 13.34-7.85 14.37-5.66.88-10.87-.59-14.77-4.89-3.5-3.85-4.78-9.59.83-12.2 1.44-.67 3.38-.95 4.94-1.25ZM442 300h-1l1 1v-1Zm-1 2h-1l1 1v-1Zm54 48c-14.06 1.85-26.83 3.8-41 1.56-14.77-2.33-16.57-8.25-24-6.16-9.11 2.57-9.82 10.46-10 18.6 7.86 1.43 9.83 2.03 18 2 17.15-.08 44.05-4.18 57-16Zm-308 34c18.15 7.61 41.94 4.75 58-6.35 7.53-5.2 17.67-14.56 12.55-24.65-1.19-2.33-3.16-4.55-5.57-5.67-6.19-2.86-11.11 4.55-14.55 8.67-6.54 7.85-10.76 14.15-20.43 18.68L187 384Z"/></svg>