<?xml version="1.0" encoding="UTF-8" standalone="no"?>
<!DOCTYPE svg PUBLIC "-//W3C//DTD SVG 20010904//EN"
              "http://www.w3.org/TR/2001/REC-SVG-20010904/DTD/svg10.dtd">

<svg xmlns="http://www.w3.org/2000/svg"
     width="40mm" height="40mm"
     viewBox="0 0 540 557">
  <path id="pgAdmin"
        fill="#336791" stroke="none"
        d="M 222.00,343.00
           C 215.75,341.86 210.01,341.02 204.00,338.77
             201.59,337.87 198.21,335.68 195.72,336.92
             193.74,337.90 182.76,350.48 180.58,353.00
             180.58,353.00 162.13,374.00 162.13,374.00
             157.83,379.01 153.82,384.39 149.00,388.91
             137.30,399.88 123.19,404.13 108.00,397.91
             94.14,392.23 83.56,378.42 76.00,366.00
             60.84,341.09 48.69,307.03 40.28,279.00
             40.28,279.00 28.63,236.00 28.63,236.00
             28.63,236.00 21.40,204.00 21.40,204.00
             16.41,179.11 12.88,160.65 13.00,135.00
             13.00,135.00 13.91,124.00 13.91,124.00
             16.40,89.93 27.42,57.60 57.00,37.67
             64.74,32.46 73.06,28.44 82.00,25.72
             103.84,19.07 117.68,19.74 140.00,20.00
             151.83,20.14 178.27,25.16 190.00,28.42
             194.27,29.61 212.11,35.48 215.00,35.18
             215.00,35.18 236.00,25.69 236.00,25.69
             250.05,20.58 268.07,17.83 283.00,18.00
             283.00,18.00 308.00,20.42 308.00,20.42
             311.50,20.97 318.98,22.61 322.00,22.37
             322.00,22.37 344.00,17.00 344.00,17.00
             344.00,17.00 369.00,13.04 369.00,13.04
             369.00,13.04 378.00,13.04 378.00,13.04
             378.00,13.04 386.00,12.04 386.00,12.04
             392.50,11.76 394.29,12.52 400.00,13.04
             400.00,13.04 409.00,13.04 409.00,13.04
             439.55,16.09 469.64,27.71 493.00,47.73
             513.03,64.89 523.68,80.06 524.00,107.00
             524.48,148.20 513.06,188.51 499.31,227.00
             490.37,252.01 478.08,277.83 465.14,301.00
             465.14,301.00 448.00,330.00 448.00,330.00
             454.07,330.86 455.44,331.92 462.00,332.00
             477.18,332.17 482.26,331.21 497.00,328.75
             505.39,327.35 515.76,324.79 522.78,331.39
             524.74,333.24 525.73,335.40 526.30,338.00
             528.97,350.20 515.59,360.68 507.00,366.85
             490.38,378.77 466.44,385.76 446.00,386.00
             436.99,386.10 427.70,386.66 419.00,384.00
             419.00,384.00 414.84,417.00 414.84,417.00
             414.84,417.00 407.59,470.00 407.59,470.00
             405.06,485.71 401.96,501.92 392.24,515.00
             381.64,529.25 365.80,536.66 349.00,540.87
             319.57,548.26 289.56,545.40 273.31,516.00
             263.03,497.38 262.32,484.56 260.91,464.00
             260.91,464.00 260.00,453.00 260.00,453.00
             260.00,453.00 259.00,432.00 259.00,432.00
             259.00,432.00 259.00,393.00 259.00,393.00
             235.68,408.53 210.97,412.32 184.00,404.28
             172.14,400.75 156.21,392.10 162.15,377.00
             165.85,367.56 179.10,364.36 188.00,362.13
             204.79,357.91 210.68,357.96 222.00,343.00 Z
           M 443.00,300.00
           C 443.00,300.00 452.69,282.00 452.69,282.00
             452.69,282.00 464.69,257.00 464.69,257.00
             477.28,229.58 487.56,201.27 494.87,172.00
             498.38,157.97 502.98,136.24 503.00,122.00
             503.00,122.00 503.00,106.00 503.00,106.00
             502.99,98.97 502.17,91.41 499.09,85.00
             496.43,79.47 490.36,73.32 486.00,69.00
             472.69,55.83 459.37,47.96 442.00,41.42
             430.23,37.00 409.56,33.02 397.00,33.00
             397.00,33.00 380.00,33.00 380.00,33.00
             380.00,33.00 357.00,35.00 357.00,35.00
             359.78,39.64 367.31,42.50 372.00,45.42
             380.64,50.81 388.46,57.35 396.00,64.17
             412.60,79.19 431.56,106.29 440.42,127.00
             443.78,134.86 447.56,143.43 448.52,152.00
             448.52,152.00 448.00,167.00 448.00,167.00
             448.00,167.00 443.83,204.00 443.83,204.00
             443.43,208.11 442.86,209.43 443.04,214.00
             443.04,214.00 447.00,254.00 447.00,254.00
             447.11,263.67 447.59,273.44 445.92,283.00
             445.08,287.74 441.84,295.73 443.00,300.00 Z
           M 425.00,142.00
           C 406.37,98.06 374.71,60.89 328.00,46.03
             307.73,39.58 293.94,38.76 273.00,39.00
             251.12,39.26 227.32,49.38 212.09,65.04
             202.87,74.52 195.20,87.92 189.86,100.00
             182.98,115.57 177.38,140.00 176.00,157.00
             176.00,157.00 195.00,149.52 195.00,149.52
             207.11,145.44 213.41,144.86 226.00,145.00
             251.17,145.30 263.80,164.34 267.75,187.00
             273.89,222.24 276.37,249.75 262.80,284.00
             258.27,295.43 248.81,314.31 247.00,326.00
             267.57,326.96 279.91,343.22 280.00,363.00
             280.00,363.00 279.00,383.00 279.00,383.00
             279.00,383.00 279.00,416.00 279.00,416.00
             279.00,416.00 280.00,431.00 280.00,431.00
             280.00,431.00 280.00,445.00 280.00,445.00
             280.00,445.00 280.91,455.00 280.91,455.00
             281.73,466.99 281.69,479.25 284.67,491.00
             289.91,511.68 303.41,524.24 325.00,524.00
             342.01,523.80 366.02,516.23 376.21,502.00
             384.17,490.88 386.35,474.32 388.27,461.00
             388.27,461.00 397.84,386.00 397.84,386.00
             397.84,386.00 400.04,366.00 400.04,366.00
             400.04,366.00 400.04,356.00 400.04,356.00
             401.53,342.38 408.50,332.59 421.00,327.00
             417.91,320.34 409.15,311.66 403.86,300.00
             403.86,300.00 390.86,275.00 390.86,275.00
             390.86,275.00 380.25,255.00 380.25,255.00
             380.25,255.00 373.01,239.00 373.01,239.00
             362.06,212.66 348.94,172.86 377.00,152.16
             381.26,149.02 384.99,147.17 390.00,145.52
             397.15,143.16 405.49,142.01 413.00,142.00
             413.00,142.00 425.00,142.00 425.00,142.00 Z
           M 197.00,52.00
           C 173.94,43.37 143.55,39.72 119.00,40.00
             110.15,40.11 96.47,42.63 88.00,45.34
             80.54,47.74 74.49,50.60 68.00,55.03
             29.77,81.11 29.99,140.25 37.80,181.00
             37.80,181.00 43.00,207.00 43.00,207.00
             43.00,207.00 50.63,240.00 50.63,240.00
             50.63,240.00 62.33,281.00 62.33,281.00
             70.94,306.90 81.24,337.22 96.36,360.00
             102.01,368.52 111.55,380.86 123.00,379.89
             132.16,379.12 138.33,370.49 143.75,364.00
             143.75,364.00 179.00,325.00 179.00,325.00
             179.00,325.00 165.44,307.00 165.44,307.00
             157.14,293.98 153.27,279.31 152.18,264.00
             152.18,264.00 154.90,238.00 154.90,238.00
             154.90,238.00 154.90,227.00 154.90,227.00
             154.90,227.00 156.00,207.00 156.00,207.00
             156.00,207.00 154.84,193.00 154.84,193.00
             154.84,193.00 154.84,176.00 154.84,176.00
             154.84,176.00 154.84,167.00 154.84,167.00
             155.04,144.06 162.76,110.86 172.31,90.00
             176.69,80.42 181.82,71.38 188.24,63.00
             188.24,63.00 197.00,52.00 197.00,52.00 Z
           M 428.00,163.00
           C 428.00,163.00 413.00,162.09 413.00,162.09
             404.46,162.58 392.58,163.95 386.34,170.33
             378.54,178.29 380.71,195.05 382.80,205.00
             386.89,224.41 398.25,246.57 407.69,264.00
             407.69,264.00 423.00,292.00 423.00,292.00
             432.01,264.27 423.04,243.04 423.00,216.00
             423.00,216.00 423.00,207.00 423.00,207.00
             423.00,207.00 428.00,163.00 428.00,163.00 Z
           M 216.00,165.29
           C 204.90,167.13 196.15,169.90 186.00,174.78
             182.97,176.24 176.94,179.18 175.86,182.32
             174.49,184.80 175.99,195.19 175.86,199.00
             175.86,199.00 175.86,223.00 175.86,223.00
             175.96,246.04 168.36,264.14 177.60,287.00
             180.22,293.47 183.33,298.83 188.09,304.00
             191.79,308.02 195.40,311.34 200.00,314.30
             205.11,317.59 213.92,321.28 220.00,321.82
             227.68,322.51 227.58,317.92 229.69,312.00
             229.69,312.00 240.42,285.00 240.42,285.00
             253.92,253.87 254.33,233.13 249.42,200.00
             247.23,185.26 246.18,167.98 228.00,165.29
             224.42,164.77 219.61,164.95 216.00,165.29 Z
           M 403.00,166.31
           C 404.87,166.22 406.08,166.02 408.00,166.31
             415.58,166.87 419.75,172.30 414.43,178.82
             411.20,182.78 405.11,185.36 400.00,184.80
             392.44,183.96 386.47,176.51 390.60,171.39
             393.15,168.23 399.19,167.15 403.00,166.31 Z
           M 222.00,171.45
           C 227.02,171.02 234.96,171.95 238.85,175.42
             245.84,181.64 237.60,188.76 231.00,189.79
             225.34,190.67 220.13,189.20 216.23,184.90
             212.73,181.05 211.45,175.31 217.06,172.70
             218.50,172.03 220.44,171.75 222.00,171.45 Z
           M 442.00,300.00
           C 442.00,300.00 441.00,300.00 441.00,300.00
             441.00,300.00 442.00,301.00 442.00,301.00
             442.00,301.00 442.00,300.00 442.00,300.00 Z
           M 441.00,302.00
           C 441.00,302.00 440.00,302.00 440.00,302.00
             440.00,302.00 441.00,303.00 441.00,303.00
             441.00,303.00 441.00,302.00 441.00,302.00 Z
           M 495.00,350.00
           C 480.94,351.85 468.17,353.80 454.00,351.56
             439.23,349.23 437.43,343.31 430.00,345.40
             420.89,347.97 420.18,355.86 420.00,364.00
             427.86,365.43 429.83,366.03 438.00,366.00
             455.15,365.92 482.05,361.82 495.00,350.00 Z
           M 187.00,384.00
           C 205.15,391.61 228.94,388.75 245.00,377.65
             252.53,372.45 262.67,363.09 257.55,353.00
             256.36,350.67 254.39,348.45 251.98,347.33
             245.79,344.47 240.87,351.88 237.43,356.00
             230.89,363.85 226.67,370.15 217.00,374.68
             217.00,374.68 187.00,384.00 187.00,384.00 Z" />
</svg>
